<?xml version="1.0" standalone="no"?>
<!DOCTYPE svg PUBLIC "-//W3C//DTD SVG 20010904//EN"
 "http://www.w3.org/TR/2001/REC-SVG-20010904/DTD/svg10.dtd">
<svg version="1.0" xmlns="http://www.w3.org/2000/svg"
 width="512.000000pt" height="512.000000pt" viewBox="0 0 512.000000 512.000000"
 preserveAspectRatio="xMidYMid meet">

<g transform="translate(0.000000,512.000000) scale(0.100000,-0.100000)"
fill="#000000" stroke="none">
<path d="M2635 4934 c-85 -13 -237 -49 -299 -71 -303 -109 -557 -320 -720
-597 -79 -132 -73 -129 -229 -137 -280 -14 -476 -98 -662 -284 -105 -105 -164
-194 -220 -327 -32 -78 -51 -97 -122 -126 -278 -112 -437 -426 -363 -716 29
-115 73 -189 165 -282 136 -137 251 -180 508 -191 l157 -6 0 -134 0 -133 -104
0 -103 0 -30 49 c-62 98 -197 140 -297 91 -141 -68 -180 -249 -79 -361 51 -56
102 -80 172 -80 91 -1 166 41 206 115 l19 35 162 3 c219 4 204 -13 204 230 l0
188 340 0 340 0 0 -500 0 -500 -224 0 -224 0 -6 23 c-10 40 -64 105 -109 132
-70 40 -140 51 -208 32 -122 -36 -189 -118 -197 -243 -4 -65 -2 -80 22 -128
46 -93 143 -156 241 -156 93 0 191 60 235 144 l25 45 278 3 279 3 19 24 c18
22 19 47 19 572 l0 549 340 0 340 0 0 -694 0 -695 -53 -24 c-74 -34 -121 -79
-157 -149 -25 -51 -30 -73 -30 -133 0 -93 21 -153 77 -215 121 -135 313 -147
447 -28 65 56 98 125 104 214 9 136 -54 246 -173 305 l-65 32 0 692 0 693 96
4 c91 4 98 6 120 32 29 33 30 55 3 90 l-20 26 -1097 0 c-623 0 -1132 4 -1179
10 -291 33 -488 304 -418 573 38 147 128 252 277 321 114 54 157 96 198 196
50 122 108 209 195 295 159 156 313 220 567 234 118 7 143 11 191 35 60 29 81
52 150 171 99 170 224 301 394 412 354 232 827 256 1200 63 43 -22 102 -53
131 -69 45 -26 57 -28 82 -19 34 11 50 35 50 70 -1 32 -16 50 -85 93 -121 78
-292 145 -455 181 -73 15 -359 28 -425 18z m-2167 -3014 c62 -58 14 -153 -73
-141 -30 3 -65 48 -65 82 0 66 89 104 138 59z m556 -685 c109 -52 72 -225 -49
-225 -120 0 -158 171 -51 224 39 20 60 20 100 1z m1653 -598 c94 -64 98 -204
7 -273 -32 -25 -46 -29 -100 -29 -70 0 -102 17 -141 75 -28 40 -31 116 -7 166
41 87 160 117 241 61z"/>
<path d="M3753 4470 c-24 -10 -43 -39 -43 -68 0 -11 23 -50 51 -88 27 -38 68
-99 89 -135 72 -122 132 -155 295 -164 245 -13 410 -81 569 -234 113 -109 192
-244 232 -396 28 -106 26 -305 -4 -410 -82 -287 -316 -514 -611 -593 l-96 -25
-548 -5 c-523 -4 -550 -5 -568 -23 -21 -21 -25 -60 -9 -89 14 -27 64 -40 151
-40 l79 0 0 -553 c0 -550 0 -554 21 -573 19 -18 42 -19 299 -22 l277 -3 19
-40 c41 -91 157 -157 260 -146 267 28 337 386 98 503 -140 69 -292 16 -365
-127 l-19 -39 -220 0 -220 0 0 500 0 500 303 0 c166 0 319 3 340 6 l37 7 0
-186 c0 -102 3 -193 6 -202 14 -36 57 -45 213 -45 l149 0 26 -45 c46 -77 148
-121 241 -104 182 34 249 268 114 396 -67 63 -172 82 -254 44 -43 -19 -109
-85 -120 -120 -6 -20 -13 -21 -116 -21 l-109 0 0 148 0 149 53 12 c183 41 395
175 522 331 347 424 282 1041 -145 1381 -169 134 -353 201 -593 214 -117 6
-132 14 -182 98 -59 99 -136 198 -162 208 -28 11 -31 11 -60 -1z m1064 -2552
c51 -48 15 -138 -56 -138 -47 0 -81 32 -81 79 0 72 84 109 137 59z m-583 -682
c102 -43 100 -186 -3 -217 -50 -15 -86 -6 -122 31 -24 24 -29 37 -29 77 0 54
18 83 65 107 37 19 47 20 89 2z"/>
</g>
</svg>
