<?xml version="1.0" standalone="no"?>
<!DOCTYPE svg PUBLIC "-//W3C//DTD SVG 20010904//EN"
 "http://www.w3.org/TR/2001/REC-SVG-20010904/DTD/svg10.dtd">
<svg version="1.0" xmlns="http://www.w3.org/2000/svg"
 width="512.000000pt" height="512.000000pt" viewBox="0 0 512.000000 512.000000"
 preserveAspectRatio="xMidYMid meet">

<g transform="translate(0.000000,512.000000) scale(0.100000,-0.100000)"
fill="#000000" stroke="none">
<path d="M2443 5106 c-178 -43 -332 -194 -378 -371 -57 -219 48 -460 248 -573
148 -84 346 -84 494 0 296 167 352 566 112 806 -125 125 -309 178 -476 138z
m240 -182 c66 -22 158 -109 188 -176 35 -79 34 -202 -3 -280 -32 -69 -96 -134
-163 -168 -43 -21 -64 -25 -145 -25 -81 0 -102 4 -145 25 -67 34 -131 99 -163
168 -37 78 -38 202 -4 277 24 53 87 124 138 155 79 49 196 59 297 24z"/>
<path d="M1433 4602 c-29 -4 -63 -48 -63 -79 0 -45 21 -65 121 -112 l100 -47
-88 -52 c-452 -267 -797 -733 -927 -1250 -29 -114 -52 -267 -61 -408 -10 -142
14 -183 100 -172 50 6 62 39 74 193 40 545 283 1016 696 1347 77 61 207 149
213 144 2 -2 -10 -31 -27 -65 -36 -71 -39 -108 -10 -145 16 -20 29 -26 57 -26
20 0 45 7 55 14 10 8 60 103 113 212 99 209 104 227 65 267 -18 19 -322 162
-371 176 -14 4 -35 5 -47 3z"/>
<path d="M3277 4430 c-33 -26 -41 -63 -21 -101 11 -23 35 -39 90 -65 566 -258
983 -815 1069 -1428 l7 -50 -62 57 c-70 65 -101 72 -146 33 -21 -18 -28 -32
-28 -60 0 -34 11 -48 149 -186 201 -201 179 -201 377 -2 138 138 148 150 148
185 0 49 -36 87 -81 87 -25 0 -45 -14 -105 -71 -84 -82 -72 -91 -99 81 -84
528 -407 1031 -862 1341 -124 84 -345 199 -384 199 -14 0 -38 -9 -52 -20z"/>
<path d="M2113 3995 c-81 -22 -132 -52 -193 -114 -68 -68 -106 -142 -120 -237
-7 -43 -10 -183 -8 -350 3 -312 7 -332 79 -403 73 -73 48 -71 689 -71 536 0
578 2 615 19 53 24 103 75 129 131 20 43 21 62 21 365 0 361 -4 387 -72 485
-80 113 -200 182 -323 183 -51 1 -84 -6 -155 -33 -85 -32 -97 -34 -215 -34
-117 0 -131 2 -215 33 -106 40 -161 46 -232 26z m149 -179 c84 -32 213 -56
298 -56 86 0 212 24 300 57 68 25 69 25 121 8 64 -22 120 -71 151 -133 22 -46
23 -54 23 -349 l0 -301 -24 -26 -24 -26 -547 0 -547 0 -24 26 -24 26 0 301 c0
293 1 303 22 347 30 61 79 106 139 130 63 24 60 24 136 -4z"/>
<path d="M610 2277 c-159 -54 -288 -188 -334 -346 -19 -66 -21 -198 -2 -266
70 -262 337 -429 598 -374 186 39 358 211 397 397 55 261 -112 528 -374 598
-79 22 -209 17 -285 -9z m302 -179 c259 -120 258 -492 -1 -612 -133 -61 -276
-37 -380 64 -118 114 -134 310 -37 442 40 53 110 105 170 124 66 22 181 13
248 -18z"/>
<path d="M4220 2286 c-258 -72 -423 -339 -369 -598 39 -186 211 -358 397 -397
261 -55 528 112 598 374 18 67 18 187 -1 260 -43 165 -195 317 -360 360 -70
18 -202 18 -265 1z m275 -186 c64 -31 134 -101 165 -165 21 -42 25 -65 25
-140 0 -76 -4 -98 -27 -147 -81 -173 -279 -243 -454 -159 -196 94 -253 350
-115 518 38 46 76 73 140 100 75 32 192 29 266 -7z"/>
<path d="M304 1175 c-104 -33 -196 -107 -248 -200 -51 -93 -57 -146 -54 -484
3 -292 4 -308 25 -346 25 -47 74 -95 123 -121 33 -18 71 -19 595 -22 604 -3
614 -2 685 49 100 73 114 139 107 517 -5 296 -9 326 -61 414 -29 50 -106 127
-156 155 -96 54 -211 68 -286 34 -152 -69 -406 -67 -543 3 -36 19 -129 19
-187 1z m193 -184 c171 -58 372 -58 542 -1 49 17 98 30 109 30 62 0 162 -77
196 -150 19 -41 21 -68 24 -315 3 -181 0 -285 -7 -313 -20 -74 -1 -72 -601
-72 l-532 0 -29 29 -29 29 0 284 c0 162 4 299 10 320 18 65 70 130 129 160 29
15 64 28 77 28 12 0 62 -13 111 -29z"/>
<path d="M3880 1172 c-137 -51 -233 -148 -276 -278 -22 -64 -32 -569 -15 -670
14 -78 46 -133 101 -173 71 -51 81 -52 685 -49 524 3 562 4 595 22 49 26 98
74 123 121 21 38 22 54 25 346 3 338 -3 391 -54 484 -34 61 -112 138 -166 166
-96 49 -211 63 -269 33 -137 -70 -391 -72 -543 -3 -51 23 -145 24 -206 1z
m201 -182 c171 -57 370 -57 546 2 67 22 102 29 127 24 57 -11 126 -65 160
-126 l31 -55 3 -303 3 -302 -30 -30 -29 -30 -532 0 c-600 0 -581 -2 -601 72
-7 28 -10 132 -7 313 3 249 5 273 24 315 25 53 74 102 129 129 54 27 72 26
176 -9z"/>
<path d="M2005 906 c-60 -19 -143 -43 -183 -55 -116 -35 -135 -75 -86 -174
105 -211 168 -316 194 -327 32 -13 72 -5 93 18 32 35 29 64 -12 148 l-39 82
71 -19 c112 -30 300 -57 437 -65 251 -13 563 39 819 137 45 17 88 40 96 52 33
47 7 119 -48 132 -14 4 -57 -6 -105 -24 -159 -58 -320 -96 -479 -115 -98 -12
-357 -7 -458 8 -148 23 -225 42 -200 51 64 23 78 30 95 53 26 33 25 65 -2 96
-34 39 -70 39 -193 2z"/>
</g>
</svg>
