<?xml version="1.0" standalone="no"?>
<!DOCTYPE svg PUBLIC "-//W3C//DTD SVG 20010904//EN"
 "http://www.w3.org/TR/2001/REC-SVG-20010904/DTD/svg10.dtd">
<svg version="1.0" xmlns="http://www.w3.org/2000/svg"
 width="512.000000pt" height="512.000000pt" viewBox="0 0 512.000000 512.000000"
 preserveAspectRatio="xMidYMid meet">

<g transform="translate(0.000000,512.000000) scale(0.100000,-0.100000)"
fill="#000000" stroke="none">
<path d="M450 4804 c-216 -46 -401 -235 -439 -448 -8 -41 -11 -608 -11 -1800
0 -1455 3 -1752 14 -1807 36 -166 155 -317 308 -388 46 -22 110 -44 142 -50
84 -15 4108 -15 4192 0 216 39 404 222 450 438 11 55 14 352 14 1807 0 1192
-3 1759 -11 1800 -29 160 -153 326 -300 398 -143 70 6 66 -2254 65 -1710 0
-2051 -3 -2105 -15z m4170 -164 c130 -25 236 -107 293 -228 l32 -67 3 -357 3
-358 -2391 0 -2391 0 3 358 3 357 32 67 c55 117 163 203 285 227 63 13 4063
13 4128 1z m330 -2498 c0 -1455 3 -1381 -63 -1485 -44 -68 -96 -113 -177 -151
l-65 -31 -2085 0 -2085 0 -65 31 c-81 38 -133 83 -177 151 -66 104 -63 30 -63
1485 l0 1318 2390 0 2390 0 0 -1318z"/>
<path d="M571 4399 c-168 -32 -261 -218 -187 -374 79 -167 300 -203 429 -70
42 43 77 128 77 185 0 65 -35 143 -86 190 -69 64 -144 86 -233 69z m122 -200
c29 -31 34 -63 16 -103 -15 -33 -71 -59 -108 -51 -85 19 -100 138 -22 177 44
22 78 15 114 -23z"/>
<path d="M1340 4379 c-99 -44 -160 -138 -160 -244 1 -236 284 -352 451 -185
167 167 50 450 -186 450 -39 0 -76 -8 -105 -21z m174 -180 c36 -43 35 -91 -3
-130 -22 -21 -39 -29 -66 -29 -83 0 -127 105 -69 164 40 39 103 37 138 -5z"/>
<path d="M2171 4383 c-26 -9 -65 -36 -91 -62 -167 -167 -51 -450 185 -451 148
0 265 117 265 265 0 185 -183 310 -359 248z m160 -182 c39 -40 41 -97 3 -135
-59 -58 -164 -14 -164 69 0 51 44 95 95 95 27 0 44 -8 66 -29z"/>
<path d="M3115 2878 c-36 -21 -44 -42 -45 -110 0 -38 -2 -68 -5 -68 -3 0 -26
15 -52 34 -70 49 -161 93 -250 118 -102 30 -303 32 -403 5 -98 -27 -237 -99
-311 -161 -170 -142 -289 -378 -293 -578 -1 -68 2 -80 21 -100 15 -15 35 -22
59 -22 54 0 79 34 88 120 10 94 31 165 77 254 158 304 520 425 825 275 38 -18
83 -45 99 -59 l30 -25 -73 -1 c-102 0 -141 -24 -142 -86 0 -34 29 -71 63 -78
12 -3 104 -8 205 -11 l182 -6 29 28 28 29 -4 174 c-5 217 -7 234 -40 260 -29
22 -58 25 -88 8z"/>
<path d="M3239 2147 c-26 -20 -36 -48 -44 -117 -33 -291 -238 -523 -509 -575
-97 -19 -152 -19 -241 0 -76 16 -212 78 -260 118 l-30 26 88 -2 c86 -2 89 -1
113 26 29 34 31 76 5 108 -16 20 -32 25 -102 30 -46 4 -141 8 -210 8 -129 1
-146 -3 -166 -42 -13 -25 -5 -374 9 -411 14 -36 66 -60 102 -47 41 16 56 49
56 123 l0 68 48 -34 c256 -184 596 -201 864 -45 124 72 255 214 321 344 40 80
76 208 83 294 7 79 7 80 -24 110 -32 33 -74 40 -103 18z"/>
</g>
</svg>
